<svg xmlns="http://www.w3.org/2000/svg" xmlns:xlink="http://www.w3.org/1999/xlink" width="144" height="144" viewBox="0 0 144 144">
  <defs>
    <clipPath id="a">
      <polygon points="35.627 9 132.622 9 108.373 51 132.622 51 108.373 93 132.622 93 108.373 135 11.378 135 35.627 93 11.378 93 35.627 51 11.378 51 35.627 9" style="fill: none"/>
    </clipPath>
  </defs>
  <title>elmsln_contributor_polygon</title>
  <g>
    <g style="clip-path: url(#a)">
      <g>
        <polygon points="35.627 9 47.751 30 23.503 30 35.627 9" style="fill: #fff;stroke: #f2f2f2;stroke-linecap: round;stroke-linejoin: round;stroke-width: 2px"/>
        <polygon points="59.876 9 72 30 47.751 30 59.876 9" style="fill: #fff;stroke: #f2f2f2;stroke-linecap: round;stroke-linejoin: round;stroke-width: 2px"/>
        <polygon points="47.751 30 35.627 9 59.876 9 47.751 30" style="fill: #fff;stroke: #f2f2f2;stroke-linecap: round;stroke-linejoin: round;stroke-width: 2px"/>
        <polygon points="84.124 9 96.249 30 72 30 84.124 9" style="fill: #fff;stroke: #f2f2f2;stroke-linecap: round;stroke-linejoin: round;stroke-width: 2px"/>
        <polygon points="72 30 59.876 9 84.124 9 72 30" style="fill: #fff;stroke: #f2f2f2;stroke-linecap: round;stroke-linejoin: round;stroke-width: 2px"/>
        <polygon points="96.249 30 84.124 9 108.373 9 96.249 30" style="fill: #fff;stroke: #f2f2f2;stroke-linecap: round;stroke-linejoin: round;stroke-width: 2px"/>
        <polygon points="108.373 9 120.497 30 96.249 30 108.373 9" style="fill: #fff;stroke: #f2f2f2;stroke-linecap: round;stroke-linejoin: round;stroke-width: 2px"/>
        <polygon points="120.497 30 108.373 9 132.622 9 120.497 30" style="fill: #fff;stroke: #f2f2f2;stroke-linecap: round;stroke-linejoin: round;stroke-width: 2px"/>
        <polygon points="23.503 30 35.627 51 11.378 51 23.503 30" style="fill: #fff;stroke: #f2f2f2;stroke-linecap: round;stroke-linejoin: round;stroke-width: 2px"/>
        <polygon points="47.751 30 59.876 51 35.627 51 47.751 30" style="fill: #fff;stroke: #f2f2f2;stroke-linecap: round;stroke-linejoin: round;stroke-width: 2px"/>
        <polygon points="35.627 51 23.503 30 47.751 30 35.627 51" style="fill: #fff;stroke: #f2f2f2;stroke-linecap: round;stroke-linejoin: round;stroke-width: 2px"/>
        <polygon points="72 30 84.124 51 59.876 51 72 30" style="fill: #fff;stroke: #f2f2f2;stroke-linecap: round;stroke-linejoin: round;stroke-width: 2px"/>
        <polygon points="59.876 51 47.751 30 72 30 59.876 51" style="fill: #fff;stroke: #f2f2f2;stroke-linecap: round;stroke-linejoin: round;stroke-width: 2px"/>
        <polygon points="84.124 51 72 30 96.249 30 84.124 51" style="fill: #fff;stroke: #f2f2f2;stroke-linecap: round;stroke-linejoin: round;stroke-width: 2px"/>
        <polygon points="96.249 30 108.373 51 84.124 51 96.249 30" style="fill: #fff;stroke: #f2f2f2;stroke-linecap: round;stroke-linejoin: round;stroke-width: 2px"/>
        <polygon points="108.373 51 96.249 30 120.497 30 108.373 51" style="fill: #fff;stroke: #f2f2f2;stroke-linecap: round;stroke-linejoin: round;stroke-width: 2px"/>
        <polygon points="35.627 51 47.751 72 23.503 72 35.627 51" style="fill: #fff;stroke: #f2f2f2;stroke-linecap: round;stroke-linejoin: round;stroke-width: 2px"/>
        <polygon points="59.876 51 72 72 47.751 72 59.876 51" style="fill: #fff;stroke: #f2f2f2;stroke-linecap: round;stroke-linejoin: round;stroke-width: 2px"/>
        <polygon points="47.751 72 35.627 51 59.876 51 47.751 72" style="fill: #fff;stroke: #f2f2f2;stroke-linecap: round;stroke-linejoin: round;stroke-width: 2px"/>
        <polygon points="84.124 51 96.249 72 72 72 84.124 51" style="fill: #fff;stroke: #f2f2f2;stroke-linecap: round;stroke-linejoin: round;stroke-width: 2px"/>
        <polygon points="72 72 59.876 51 84.124 51 72 72" style="fill: #fff;stroke: #f2f2f2;stroke-linecap: round;stroke-linejoin: round;stroke-width: 2px"/>
        <polygon points="96.249 72 84.124 51 108.373 51 96.249 72" style="fill: #fff;stroke: #f2f2f2;stroke-linecap: round;stroke-linejoin: round;stroke-width: 2px"/>
        <polygon points="108.373 51 120.497 72 96.249 72 108.373 51" style="fill: #fff;stroke: #f2f2f2;stroke-linecap: round;stroke-linejoin: round;stroke-width: 2px"/>
        <polygon points="120.497 72 108.373 51 132.622 51 120.497 72" style="fill: #fff;stroke: #f2f2f2;stroke-linecap: round;stroke-linejoin: round;stroke-width: 2px"/>
        <polygon points="23.503 72 35.627 93 11.378 93 23.503 72" style="fill: #fff;stroke: #f2f2f2;stroke-linecap: round;stroke-linejoin: round;stroke-width: 2px"/>
        <polygon points="35.627 93 23.503 72 47.751 72 35.627 93" style="fill: #fff;stroke: #f2f2f2;stroke-linecap: round;stroke-linejoin: round;stroke-width: 2px"/>
        <polygon points="72 72 84.124 93 59.876 93 72 72" style="fill: #fff;stroke: #f2f2f2;stroke-linecap: round;stroke-linejoin: round;stroke-width: 2px"/>
        <polygon points="47.751 72 59.876 93 35.627 93 47.751 72" style="fill: #fff;stroke: #f2f2f2;stroke-linecap: round;stroke-linejoin: round;stroke-width: 2px"/>
        <polygon points="59.876 93 47.751 72 72 72 59.876 93" style="fill: #fff;stroke: #f2f2f2;stroke-linecap: round;stroke-linejoin: round;stroke-width: 2px"/>
        <polygon points="84.124 93 72 72 96.249 72 84.124 93" style="fill: #fff;stroke: #f2f2f2;stroke-linecap: round;stroke-linejoin: round;stroke-width: 2px"/>
        <polygon points="108.373 93 96.249 72 120.497 72 108.373 93" style="fill: #fff;stroke: #f2f2f2;stroke-linecap: round;stroke-linejoin: round;stroke-width: 2px"/>
        <polygon points="35.627 93 47.751 114 23.503 114 35.627 93" style="fill: #fff;stroke: #f2f2f2;stroke-linecap: round;stroke-linejoin: round;stroke-width: 2px"/>
        <polygon points="59.876 93 72 114 47.751 114 59.876 93" style="fill: #fff;stroke: #f2f2f2;stroke-linecap: round;stroke-linejoin: round;stroke-width: 2px"/>
        <polygon points="47.751 114 35.627 93 59.876 93 47.751 114" style="fill: #fff;stroke: #f2f2f2;stroke-linecap: round;stroke-linejoin: round;stroke-width: 2px"/>
        <polygon points="84.124 93 96.249 114 72 114 84.124 93" style="fill: #fff;stroke: #f2f2f2;stroke-linecap: round;stroke-linejoin: round;stroke-width: 2px"/>
        <polygon points="72 114 59.876 93 84.124 93 72 114" style="fill: #fff;stroke: #f2f2f2;stroke-linecap: round;stroke-linejoin: round;stroke-width: 2px"/>
        <polygon points="96.249 114 84.124 93 108.373 93 96.249 114" style="fill: #fff;stroke: #f2f2f2;stroke-linecap: round;stroke-linejoin: round;stroke-width: 2px"/>
        <polygon points="108.373 93 120.497 114 96.249 114 108.373 93" style="fill: #fff;stroke: #f2f2f2;stroke-linecap: round;stroke-linejoin: round;stroke-width: 2px"/>
        <polygon points="120.497 114 108.373 93 132.622 93 120.497 114" style="fill: #fff;stroke: #f2f2f2;stroke-linecap: round;stroke-linejoin: round;stroke-width: 2px"/>
        <polygon points="23.503 114 35.627 135 11.378 135 23.503 114" style="fill: #fff;stroke: #f2f2f2;stroke-linecap: round;stroke-linejoin: round;stroke-width: 2px"/>
        <polygon points="47.751 114 59.876 135 35.627 135 47.751 114" style="fill: #fff;stroke: #f2f2f2;stroke-linecap: round;stroke-linejoin: round;stroke-width: 2px"/>
        <polygon points="35.627 135 23.503 114 47.751 114 35.627 135" style="fill: #fff;stroke: #f2f2f2;stroke-linecap: round;stroke-linejoin: round;stroke-width: 2px"/>
        <polygon points="72 114 84.124 135 59.876 135 72 114" style="fill: #fff;stroke: #f2f2f2;stroke-linecap: round;stroke-linejoin: round;stroke-width: 2px"/>
        <polygon points="59.876 135 47.751 114 72 114 59.876 135" style="fill: #fff;stroke: #f2f2f2;stroke-linecap: round;stroke-linejoin: round;stroke-width: 2px"/>
        <polygon points="84.124 135 72 114 96.249 114 84.124 135" style="fill: #fff;stroke: #f2f2f2;stroke-linecap: round;stroke-linejoin: round;stroke-width: 2px"/>
        <polygon points="96.249 114 108.373 135 84.124 135 96.249 114" style="fill: #fff;stroke: #f2f2f2;stroke-linecap: round;stroke-linejoin: round;stroke-width: 2px"/>
        <polygon points="108.373 135 96.249 114 120.497 114 108.373 135" style="fill: #fff;stroke: #f2f2f2;stroke-linecap: round;stroke-linejoin: round;stroke-width: 2px"/>
      </g>
      <path d="M122.22943,15,103.17688,48l-5.19611,9h24.24866L103.17688,90l-5.19611,9h24.24866l-17.3205,30H21.77057L40.82312,96l5.19617-9H21.77057L40.82312,54l5.19617-9H21.77057l17.3205-30h83.13837m10.39233-6H35.627L11.37823,51H35.627L11.37823,93H35.627L11.37823,135H108.373l24.24872-42H108.373l24.24872-42H108.373L132.62177,9Z" style="fill: #f2f2f2"/>
    </g>
    <path d="M86.83575,66.59157l2.7454,1.58443a2.47653,2.47653,0,0,0,2.47589-.00006l4.07416-2.35154a2.47653,2.47653,0,0,0,1.23853-2.14489V58.97488a2.47653,2.47653,0,0,0-1.23821-2.1447l-4.07416-2.35236a2.47653,2.47653,0,0,0-2.47654-.00005l-4.0747,2.35243a2.47653,2.47653,0,0,0-1.2383,2.14476v3.11969a2.47653,2.47653,0,0,1-1.23831,2.14476L77.086,67.67071a2.47653,2.47653,0,0,1-2.47633.00006l-.0207-.012A2.47653,2.47653,0,0,1,73.35056,65.514V58.34066a2.47653,2.47653,0,0,1,1.23864-2.145l2.72312-1.57156a2.47653,2.47653,0,0,0,1.23864-2.145V47.77471a2.47653,2.47653,0,0,0-1.2383-2.14476L73.238,43.27752a2.47653,2.47653,0,0,0-2.47654.00005l-4.07416,2.35236a2.47653,2.47653,0,0,0-1.23821,2.1447v4.70465a2.47653,2.47653,0,0,0,1.23852,2.14488l2.7227,1.57152a2.47653,2.47653,0,0,1,1.23852,2.14488v7.19721a2.47653,2.47653,0,0,1-1.23836,2.14479h0a2.47653,2.47653,0,0,1-2.47644-.00006l-5.96355-3.4431a2.47653,2.47653,0,0,1-1.23825-2.14473V58.96176a2.47653,2.47653,0,0,0-1.2383-2.14476l-4.0747-2.35243a2.47653,2.47653,0,0,0-2.47654.00005L47.86847,56.817a2.47653,2.47653,0,0,0-1.23821,2.1447v4.70464a2.47653,2.47653,0,0,0,1.23853,2.14489l4.07415,2.35153a2.47653,2.47653,0,0,0,2.47591,0l2.73385-1.5778a2.47653,2.47653,0,0,1,2.47617.00019l5.95307,3.437a2.47653,2.47653,0,0,1,1.23828,2.14474v.001a2.47653,2.47653,0,0,1-1.23832,2.14477l-5.9424,3.43064a2.47653,2.47653,0,0,1-2.47638,0L54.4396,76.17109a2.47653,2.47653,0,0,0-2.47648.00009l-4.0742,2.35238a2.47653,2.47653,0,0,0-1.23821,2.1447V85.3729a2.47653,2.47653,0,0,0,1.23853,2.14489l4.07416,2.35154a2.47653,2.47653,0,0,0,2.47589.00005l4.0747-2.35161a2.47653,2.47653,0,0,0,1.23863-2.14494V82.22828a2.47653,2.47653,0,0,1,1.23826-2.14473l5.92077-3.41838a2.47653,2.47653,0,0,1,2.47641-.00007l.02233.01289a2.47653,2.47653,0,0,1,1.23839,2.14481v6.837a2.47653,2.47653,0,0,1-1.23821,2.14471l-2.72331,1.57239A2.47653,2.47653,0,0,0,65.449,91.52155v4.70464a2.47653,2.47653,0,0,0,1.23853,2.14489l4.07416,2.35154a2.47653,2.47653,0,0,0,2.47589.00005l4.0747-2.35161A2.47653,2.47653,0,0,0,78.551,96.22611V91.52164a2.47653,2.47653,0,0,0-1.23833-2.14477l-2.72374-1.57244a2.47653,2.47653,0,0,1-1.23833-2.14477V78.84658A2.47653,2.47653,0,0,1,74.589,76.70175l.043-.02484a2.47653,2.47653,0,0,1,2.4763.00007l5.90073,3.40659a2.47653,2.47653,0,0,1,1.23832,2.14477v3.1445A2.47653,2.47653,0,0,0,85.486,87.51777l4.0747,2.35161a2.47653,2.47653,0,0,0,2.47589-.00005l4.07416-2.35154a2.47653,2.47653,0,0,0,1.23853-2.14489V80.66826a2.47653,2.47653,0,0,0-1.23821-2.1447l-4.07414-2.35234a2.47653,2.47653,0,0,0-2.47657,0l-2.7235,1.5724a2.47653,2.47653,0,0,1-2.47654,0l-5.90174-3.40744a2.47653,2.47653,0,0,1-1.23825-2.14472v-.04795a2.47653,2.47653,0,0,1,1.23826-2.14473l5.901-3.40694A2.47653,2.47653,0,0,1,86.83575,66.59157ZM57.03039,62.7813a1.30862,1.30862,0,0,1-.65457,1.13345l-.68626.396-1.85451,1.07031a1.30862,1.30862,0,0,1-1.30832,0l-2.54026-1.46626A1.30862,1.30862,0,0,1,49.332,62.7814V59.84663a1.30862,1.30862,0,0,1,.65414-1.1332l2.54028-1.46714a1.30862,1.30862,0,0,1,1.30888,0l2.54083,1.4672a1.30862,1.30862,0,0,1,.65423,1.13325v2.9346ZM94.64751,81.55321V84.488a1.30862,1.30862,0,0,1-.65443,1.13337L91.4528,87.08761a1.30862,1.30862,0,0,1-1.30829,0l-2.54083-1.46633a1.30862,1.30862,0,0,1-.65452-1.13342V81.55324A1.30862,1.30862,0,0,1,87.60334,80.42l.69646-.4022,1.84442-1.065a1.30862,1.30862,0,0,1,1.30885.00006L93.99337,80.42A1.30862,1.30862,0,0,1,94.64751,81.55321ZM87.62383,58.72664l2.54083-1.4672a1.30862,1.30862,0,0,1,1.30888,0l2.54028,1.46714a1.30862,1.30862,0,0,1,.65414,1.1332v2.93477a1.30862,1.30862,0,0,1-.65443,1.13337l-2.54027,1.46626a1.30862,1.30862,0,0,1-1.30831,0l-1.866-1.07691-.67482-.38941a1.30862,1.30862,0,0,1-.65455-1.13344V59.85989A1.30862,1.30862,0,0,1,87.62383,58.72664ZM68.805,47.52638l2.54028-1.46714a1.30862,1.30862,0,0,1,1.30888,0L75.195,47.5264a1.30862,1.30862,0,0,1,.65423,1.13325v2.93462a1.30862,1.30862,0,0,1-.65454,1.13343l-1.84408,1.06419-.69675.40213a1.30862,1.30862,0,0,1-1.30828,0l-.69675-.40213-1.84355-1.06417a1.30862,1.30862,0,0,1-.65441-1.13335V48.65958A1.30862,1.30862,0,0,1,68.805,47.52638ZM57.05084,82.35845v2.12946a1.30862,1.30862,0,0,1-.65452,1.13342l-2.54083,1.46633a1.30862,1.30862,0,0,1-1.30829,0l-2.54028-1.46627a1.30862,1.30862,0,0,1-.65443-1.13337V81.55321a1.30862,1.30862,0,0,1,.65414-1.1332l2.5403-1.46715a1.30862,1.30862,0,0,1,1.30885-.00006l1.84442,1.065.69646.4022a1.30862,1.30862,0,0,1,.65418,1.13323ZM75.19466,96.47462l-2.54083,1.46633a1.30862,1.30862,0,0,1-1.30829,0l-2.54028-1.46627a1.30862,1.30862,0,0,1-.65443-1.13337V92.40653A1.30862,1.30862,0,0,1,68.805,91.2733l1.84378-1.06478.69647-.40231a1.30862,1.30862,0,0,1,1.3089-.00012l.6964.4021L75.195,91.2733a1.30862,1.30862,0,0,1,.6542,1.13324V95.3412A1.30862,1.30862,0,0,1,75.19466,96.47462Z"/>
  </g>
</svg>
