<svg xmlns="http://www.w3.org/2000/svg" xmlns:xlink="http://www.w3.org/1999/xlink" width="144" height="144" viewBox="0 0 144 144">
  <defs>
    <clipPath id="a">
      <polygon points="35.627 9 132.622 9 108.373 51 132.622 51 108.373 93 132.622 93 108.373 135 11.378 135 35.627 93 11.378 93 35.627 51 11.378 51 35.627 9" style="fill: none"/>
    </clipPath>
  </defs>
  <title>DMD Student Badge</title>
  <g>
    <g style="clip-path: url(#a)">
      <g>
        <polygon points="16.574 132 40.823 90 16.574 90 40.823 48 16.574 48 37.359 12 127.426 12 103.177 54 127.426 54 103.177 96 127.426 96 106.641 132 16.574 132"/>
        <path d="M122.22943,15,103.17688,48l-5.19611,9h24.24866L103.17688,90l-5.19611,9h24.24866l-17.3205,30H21.77057L40.82312,96l5.19617-9H21.77057L40.82312,54l5.19617-9H21.77057l17.3205-30h83.13837m10.39233-6H35.627L11.37823,51H35.627L11.37823,93H35.627L11.37823,135H108.373l24.24872-42H108.373l24.24872-42H108.373L132.62177,9Z"/>
      </g>
    </g>
    <g>
      <path d="M64.83594,51.23828V34.67969q4.22314-.24023,7.08008-.24023a11.44807,11.44807,0,0,1,4.57227.73047,4.64451,4.64451,0,0,1,2.3877,2.56836,14.01467,14.01467,0,0,1,.76758,5.2207,14.01467,14.01467,0,0,1-.76758,5.2207,4.6343,4.6343,0,0,1-2.3877,2.56641,11.40915,11.40915,0,0,1-4.57227.73242Q68.31543,51.47852,64.83594,51.23828Zm5.208-3.55078,1.87207.02344a1.77629,1.77629,0,0,0,1.78809-.94727,10.53913,10.53913,0,0,0,.44336-3.80469,10.53913,10.53913,0,0,0-.44336-3.80469A1.77629,1.77629,0,0,0,71.916,38.207H70.04395Z" style="fill: #fff"/>
      <path d="M75.48047,63.71875h4.584a1.64145,1.64145,0,0,1,1.82324,1.80078l.57617,14.75977H77.78418l-.50391-12.67187h-.36035l-1.63184,8.44727a1.75915,1.75915,0,0,1-1.96777,1.584H70.63184a1.79,1.79,0,0,1-1.99121-1.584l-1.65625-8.44727H66.624l-.4082,12.67188H61.53613l.57617-14.75977a1.64132,1.64132,0,0,1,1.82422-1.80078h4.4873a1.78617,1.78617,0,0,1,1.96875,1.60742l1.19922,6.57617c.08008.51367.168,1.33594.26465,2.47266h.21582q0-.07324.10742-1.03125.1084-.96094.18066-1.44141l1.12793-6.57617A1.79819,1.79819,0,0,1,75.48047,63.71875Z" style="fill: #fff"/>
      <path d="M64.83594,109.31836V92.75781q4.22314-.24023,7.08008-.24023a11.40915,11.40915,0,0,1,4.57227.73242,4.63819,4.63819,0,0,1,2.3877,2.56836,13.99629,13.99629,0,0,1,.76758,5.21875,14.01467,14.01467,0,0,1-.76758,5.2207,4.63819,4.63819,0,0,1-2.3877,2.56836,11.40915,11.40915,0,0,1-4.57227.73242Q68.31543,109.55859,64.83594,109.31836Zm5.208-3.55273,1.87207.02344a1.77337,1.77337,0,0,0,1.78809-.94727,10.53184,10.53184,0,0,0,.44336-3.80469,10.52624,10.52624,0,0,0-.44336-3.80273,1.77456,1.77456,0,0,0-1.78809-.94922H70.04395Z" style="fill: #fff"/>
    </g>
  </g>
</svg>
